<svg width="150" height="38" viewBox="0 0 150 38" fill="none" xmlns="http://www.w3.org/2000/svg">
<g clip-path="url(#clip0_153_432)">
<path d="M49.4131 6.45779L36.9832 31.2792H39.7601L42.9943 24.8355C44.5379 22.3463 47.6728 20.8086 50.6057 20.8086C53.6503 20.8086 56.9164 22.4522 58.4068 25.0985H58.4085L61.5116 31.2809H64.2885L51.8604 6.45956H49.4131V6.45779ZM50.6057 18.3247C48.8655 18.3247 47.1766 18.7449 45.6685 19.5076L50.6359 9.61078L55.6209 19.5464C54.0951 18.7573 52.3814 18.3247 50.6057 18.3247Z" fill="white"/>
<path d="M117.389 16.773C117.389 10.8907 112.938 6.45602 107.033 6.45602H96.6782V31.2774H99.1699V8.93816H107.033C111.369 8.93816 114.898 12.4531 114.898 16.773C114.898 19.5058 113.503 21.9985 111.166 23.4391L110.583 23.7992L118.019 31.2792H121.517L114.421 24.1505C115.286 23.1354 117.389 20.3126 117.389 16.773Z" fill="white"/>
<path d="M147.133 6.45779V26.9751L130.367 6.45779H127.512V31.2792H130.004V9.92502L147.419 31.2792H149.625V6.45779H147.133Z" fill="white"/>
<path d="M87.1884 25.8012C85.294 27.8896 82.5347 29.0866 79.616 29.0866C74.0355 29.0866 69.497 24.5018 69.497 18.8685C69.497 13.2351 74.0372 8.65041 79.616 8.65041C82.5276 8.65041 85.2833 9.84382 87.1778 11.9234L87.5269 12.3065L89.4231 10.7548L89.0385 10.3328C86.5522 7.60177 83.3623 6.15768 79.8145 6.15768C72.779 6.15768 67.0549 11.8599 67.0549 18.8685C67.0549 25.8771 72.779 31.5793 79.8145 31.5793C83.3712 31.5793 86.5646 30.1299 89.0527 27.3883L89.4373 26.9663L87.5393 25.4181L87.1884 25.8012Z" fill="white"/>
<path d="M15.2955 15.3836C9.30207 15.3836 5.05067 17.0501 4.87345 17.1207L4.4375 17.2938V30.7884L15.2955 38L26.1535 30.7884V17.2955L25.7176 17.1207C25.5386 17.0501 21.2889 15.3836 15.2955 15.3836ZM9.14258 28.827L12.9474 34.7817L6.42586 30.4512L9.14258 28.827ZM8.49574 27.6036L5.82333 29.2013V21.2147L8.49574 27.6036ZM11.8239 21.7037L19.1393 27.1976H9.82663L8.47802 23.974L11.8239 21.7037ZM7.93574 22.6729L6.05194 18.1712C7.50865 17.698 10.9325 16.7641 15.2955 16.7641C15.7226 16.7641 16.1568 16.773 16.5945 16.7924L7.93574 22.6729ZM13.0325 20.8828L18.2249 17.3573L20.1565 26.2337L13.0325 20.8828ZM19.9616 28.5781L15.2937 35.8833L10.6259 28.5781H19.9616ZM21.4343 25.5911L19.5788 17.0625C21.8596 17.3785 23.591 17.864 24.5373 18.1712L21.4343 25.5911ZM24.1634 30.4512L17.6418 34.7817L21.4467 28.827L24.1634 30.4512ZM22.0935 27.6036L24.7659 21.2147V29.2013L22.0935 27.6036Z" fill="white"/>
<path d="M26.3343 3.56079L19.7117 2.73635L18.7973 0H11.7937L10.8775 2.73635L4.25495 3.56079L0 6.74026V11.3356L4.42862 15.7473L5.15698 15.4577C5.19951 15.4419 9.45269 13.7859 15.2955 13.7859C21.1436 13.7859 25.3915 15.4419 25.4322 15.4577L26.1606 15.7473L30.5892 11.3356V6.74026L26.3343 3.56079ZM28.7178 11.2296L25.8221 14.1143C25.5687 14.0207 24.9573 13.8053 24.0464 13.5547L26.8996 10.0203L28.7178 11.2296ZM29.191 7.43582V9.86853L27.3851 8.66983L26.7755 5.63159L29.191 7.43582ZM25.4056 5.91758L26.0064 8.90462L23.1922 12.3895L20.9451 9.25064L25.4056 5.91758ZM19.8251 10.0874L21.9535 13.0603C20.2256 12.7108 18.4623 12.4972 16.699 12.423L19.8251 10.0874ZM16.5838 6.08353L19.6373 4.13101L24.6348 4.75243L19.9545 8.24966L16.5838 6.08353ZM15.2902 5.25203L12.1783 3.25361L12.8003 1.39289H17.7871L18.4092 3.25361L15.2902 5.25203ZM15.2884 6.91326L18.7601 9.14118L15.2955 11.731L11.8185 9.13236L15.2884 6.91326ZM13.8902 12.423C12.1233 12.4972 10.36 12.7126 8.62863 13.0621L10.7481 10.0768L13.8902 12.423ZM5.95622 4.75419L10.9572 4.13101L13.9947 6.08177L10.6241 8.24084L5.95622 4.75419ZM9.6299 9.24005L7.39521 12.3877L4.58457 8.90639L5.18356 5.91935L9.6299 9.24005ZM3.68963 10.0221L6.5428 13.5564C5.63014 13.8071 5.01875 14.0225 4.7671 14.1161L1.8714 11.2296L3.68963 10.0221ZM3.81545 5.63159L3.20583 8.66983L1.39823 9.86853V7.43582L3.81545 5.63159Z" fill="white"/>
</g>
<defs>
<clipPath id="clip0_153_432">
<rect width="149.625" height="38" fill="white"/>
</clipPath>
</defs>
</svg>
